<?xml version="1.0" standalone="no"?>
<!DOCTYPE svg PUBLIC "-//W3C//DTD SVG 20010904//EN"
 "http://www.w3.org/TR/2001/REC-SVG-20010904/DTD/svg10.dtd">
<svg version="1.0" xmlns="http://www.w3.org/2000/svg"
 width="2572.000000pt" height="2566.000000pt" viewBox="0 0 2572.000000 2566.000000"
 preserveAspectRatio="xMidYMid meet">

<g transform="translate(0.000000,2566.000000) scale(0.100000,-0.100000)"
fill="#000000" stroke="none">
<path d="M8210 23285 c-672 -77 -1303 -329 -1850 -741 -181 -136 -288 -230
-455 -398 -346 -349 -618 -729 -866 -1211 -402 -782 -631 -1669 -690 -2680
-13 -229 -7 -839 11 -1033 6 -68 10 -125 8 -127 -2 -2 -34 3 -73 10 -186 36
-342 49 -600 50 -274 0 -381 -9 -615 -51 -1531 -279 -2678 -1588 -2986 -3408
-123 -728 -108 -1529 42 -2301 202 -1036 596 -1908 1185 -2620 121 -146 425
-445 569 -561 596 -476 1242 -758 1945 -849 99 -12 399 -34 481 -35 l22 0 -5
-327 c-25 -1487 321 -2777 1032 -3858 699 -1062 1733 -1878 3050 -2405 936
-375 2013 -604 3255 -694 730 -53 1647 -53 2380 0 2396 172 4228 879 5504
2124 867 846 1441 1917 1691 3155 111 552 149 980 143 1622 l-3 381 125 6
c593 30 1069 149 1560 389 753 370 1376 974 1841 1787 435 762 721 1754 789
2740 13 188 13 676 0 855 -64 878 -287 1628 -681 2290 -505 848 -1266 1435
-2154 1660 -457 116 -940 135 -1403 56 -56 -10 -104 -15 -106 -12 -2 3 1 44 5
91 4 47 13 207 19 355 16 364 2 756 -41 1140 -197 1784 -1010 3259 -2220 4030
-505 321 -1037 508 -1632 571 -296 31 -766 7 -1068 -55 -1059 -218 -2000 -863
-2732 -1871 -299 -412 -591 -946 -782 -1433 -21 -53 -42 -94 -46 -90 -4 5 -24
51 -44 103 -199 504 -508 1060 -824 1484 -224 300 -590 691 -841 898 -660 544
-1336 848 -2120 953 -173 24 -650 29 -820 10z m592 -1950 c293 -39 586 -154
858 -336 170 -114 268 -196 430 -359 297 -298 529 -626 741 -1050 312 -624
490 -1271 571 -2075 20 -199 17 -761 -6 -950 -76 -651 -265 -1168 -578 -1582
-92 -121 -256 -294 -373 -391 -598 -499 -1465 -655 -2220 -400 -114 38 -344
148 -454 217 -268 166 -538 426 -741 711 -493 695 -760 1724 -737 2835 6 289
22 490 58 724 110 726 374 1392 737 1861 155 199 402 427 593 545 223 138 507
237 744 258 100 9 279 5 377 -8z m8549 1 c191 -26 339 -71 524 -161 452 -220
822 -619 1102 -1190 414 -844 553 -1927 392 -3039 -184 -1270 -768 -2231
-1604 -2641 -223 -109 -428 -174 -666 -212 -160 -25 -516 -25 -684 1 -570 87
-1048 348 -1411 769 -387 450 -613 1043 -685 1797 -15 158 -15 634 0 805 100
1145 469 2152 1060 2893 566 710 1289 1068 1972 978z m-13509 -6137 c313 -33
630 -169 941 -402 141 -105 421 -380 541 -530 492 -617 825 -1433 943 -2305
25 -185 25 -699 0 -867 -150 -1004 -762 -1657 -1677 -1791 -156 -22 -469 -15
-615 15 -297 61 -598 205 -844 403 -108 88 -282 267 -378 390 -586 750 -897
2024 -757 3107 71 553 269 1063 544 1405 76 94 248 260 330 318 292 207 622
294 972 257z m18465 -18 c800 -164 1350 -995 1444 -2186 15 -188 6 -629 -16
-820 -83 -717 -313 -1400 -630 -1875 -359 -539 -806 -863 -1355 -982 -94 -20
-132 -22 -355 -22 -234 -1 -258 1 -376 27 -517 110 -934 387 -1213 806 -442
662 -494 1672 -142 2745 223 679 555 1239 991 1671 391 389 804 606 1255 659
81 10 299 -3 397 -23z m-9022 -2409 c963 -149 1878 -730 2700 -1717 732 -877
1342 -2062 1658 -3220 179 -654 259 -1204 261 -1780 0 -298 -10 -448 -45 -685
-112 -747 -436 -1381 -944 -1842 -503 -458 -1164 -771 -2030 -962 -1025 -226
-2467 -258 -3615 -80 -632 98 -1209 273 -1678 508 -603 303 -1073 741 -1364
1271 -202 368 -322 760 -384 1255 -21 174 -30 667 -15 883 68 966 363 2006
852 3002 542 1106 1267 2023 2076 2629 537 402 1118 656 1683 735 209 30 202
29 470 26 182 -3 279 -9 375 -23z"/>
</g>
</svg>
